<svg width="625" height="949" viewBox="0 0 625 949" fill="none" xmlns="http://www.w3.org/2000/svg">
<path d="M433.009 166.861C470.719 239.959 487.86 310.036 526.06 377.697C564.26 445.962 624.008 512.415 624.987 575.243C625.967 638.072 569.157 697.275 516.755 748.625C464.353 799.975 416.358 842.867 357.59 883.947C299.311 924.423 229.767 962.482 172.958 944.359C116.148 925.631 71.0917 850.721 60.3175 773.998C49.0534 697.275 71.5815 618.136 60.8072 543.829C50.0329 469.523 5.95634 398.841 0.569198 324.535C-4.81794 249.625 28.4844 171.089 81.3763 105.845C134.268 40.6003 206.26 -10.7496 271.395 1.93683C336.531 15.2274 394.81 93.1584 433.009 166.861Z" fill="#242424"/>
</svg>
